<svg xmlns="http://www.w3.org/2000/svg" viewBox="0 0 1200 630" width="1200" height="630">
  <defs>
    <radialGradient id="glow" cx="50%" cy="30%" r="60%">
      <stop offset="0%" stop-color="#5cbdb9" stop-opacity="0.25" />
      <stop offset="100%" stop-color="#5cbdb9" stop-opacity="0" />
    </radialGradient>
  </defs>

  <rect x="0" y="0" width="1200" height="630" fill="#030712" />
  <rect x="0" y="0" width="1200" height="630" fill="url(#glow)" />

  <g transform="translate(600, 235)" text-anchor="middle">
    <g transform="translate(-32, -84)" fill="none" stroke="#5cbdb9" stroke-width="2.5" stroke-linecap="round" stroke-linejoin="round">
      <path d="M54 50.94h-17.97c-3.3 0-5.85 2.82-7.44 5.7A12 12 0 0 1 6 51c.03-2.1.6-4.2 1.71-6" />
      <path d="m18 51 9.39-17.34c1.59-2.91.3-6.54-1.5-9.3a12 12 0 1 1 20.67-12.18" />
      <path d="m36 18 9.39 17.19C46.98 38.1 50.7 39 54 39a12 12 0 0 1 0 24" />
    </g>

    <text x="0" y="6" font-family="Arial, sans-serif" font-size="56" font-weight="700" fill="#ffffff">
      Event Relay
    </text>

    <text x="0" y="56" font-family="Arial, sans-serif" font-size="24" fill="#9ca3af">
      Reliable webhook delivery infrastructure
    </text>
  </g>

  <g transform="translate(600, 380)" text-anchor="middle" font-family="Arial, sans-serif" font-size="20" fill="#5cbdb9">
    <text x="-260" y="0">Automatic Retries</text>
    <text x="0" y="0">Live Delivery Tracking</text>
    <text x="260" y="0">Team &amp; Permissions</text>
  </g>
</svg>
